# xmcd
#
# Track frame offsets: 
#        150
#        16355
#        30611
#        42955
#        54045
#        65768
#        78431
#        94038
#        105936
#        120656
#        130685
#        145472
#        159493
#        175225
#        188609
#        199309
#        213784
#        224235
#        235607
#        248664
#        266514
#        277414
#        290809
#        308293
#        319715
#
# Disc length: 4435 seconds
#
# Revision: 0
# Processed by: cddbd v1.5.2PL0 Copyright (c) Steve Scherf et al.
# Submitted via: ExactAudioCopy v0.99pb3
#
DISCID=66115119
DTITLE=Various Artist - The Complete Motown Singles Volume 8 [CD43)
DYEAR=1968
DGENRE=R&B/Soul
TTITLE0=The Temptations - Cloud Nine
TTITLE1=The Temptations - Why Did She Have To Leave Me (Why Did She Ha
TTITLE1=ve To Go)
TTITLE2=Edwin Starr - Way Over There
TTITLE3=Edwin Starr - If My Heart Could Tell The Story
TTITLE4=The Isley Brothers - All Because I Love You
TTITLE5=The Isley Brothers - Behind A Painted Smile
TTITLE6=Blinky - I Wouldn't Change The Man He Is
TTITLE7=Blinky - I'll Always Love You
TTITLE8=Jimmy Ruffin - Gonna Keep On Tryin' Till I Win Your Love
TTITLE9=Jimmy Ruffin - Sad And Lonesome Feeling
TTITLE10=Diana Ross and The Supremes& The Temptations - The Impossible D
TTITLE10=ream
TTITLE11=Diana Ross and The Supremes and The Temptations - I'm Gonna Make 
TTITLE11=You Love Me
TTITLE12=Diana Ross and The Supremes and The Temptations - A Place In The 
TTITLE12=Sun
TTITLE13=The Temptations - Rudolph, The Red-Nosed Reindeer
TTITLE14=The Temptations - Silent Night, Holy Night
TTITLE15=Marvin Gaye -  Heard It Through The Grapevine
TTITLE16=Marvin Gaye - You're What's Happening (In The World Today)
TTITLE17=Tammi Terrell - This Old Heart Of Mine (Is Weak For You)
TTITLE18=Tammi Terrell - Just Too Much To Hope For
TTITLE19=Smokey Robinson and The Miracles - Baby, Baby Don't Cry
TTITLE20=Smokey Robinson and The Miracles - Your Mother's Only Daughter
TTITLE21=Jr. Walker And The All Stars - Home Cookin'
TTITLE22=Jr. Walker and The All Stars - Mutiny
TTITLE23=The Marvelettes - I'm Gonna Hold On Long As I Can
TTITLE24=The Marvelettes  - Don't Make Hurting Me A Habit
EXTD=
EXTT0=
EXTT1=
EXTT2=
EXTT3=
EXTT4=
EXTT5=
EXTT6=
EXTT7=
EXTT8=
EXTT9=
EXTT10=
EXTT11=
EXTT12=
EXTT13=
EXTT14=
EXTT15=
EXTT16=
EXTT17=
EXTT18=
EXTT19=
EXTT20=
EXTT21=
EXTT22=
EXTT23=
EXTT24=
PLAYORDER=
